<svg width="69" height="48" viewBox="0 0 69 48" fill="none" xmlns="http://www.w3.org/2000/svg">
<path d="M20.026 45.2847L19.7377 46.4052C19.7309 46.4433 19.7241 46.4761 19.7187 46.5011C19.7133 46.5274 19.6916 46.5996 19.6524 46.7165C19.5833 46.9937 19.5495 47.1802 19.5495 47.2735C19.5495 47.3983 19.5806 47.4824 19.6429 47.527C19.7282 47.5638 19.8365 47.5835 19.9678 47.5835H20.2047L20.1289 47.8594L18.8929 47.837L17.8125 47.8594L17.8707 47.5835C18.1076 47.5835 18.2769 47.5139 18.3811 47.3747C18.419 47.3208 18.4867 47.1303 18.5842 46.8006L19.3329 43.8331C19.3559 43.6925 19.3924 43.5375 19.4398 43.3641C19.4886 43.1934 19.5129 43.0646 19.5129 42.9819C19.5129 42.8466 19.4723 42.7586 19.3911 42.7178C19.3247 42.6692 19.2151 42.6443 19.0594 42.6443H18.8685L18.9335 42.3684L20.0369 42.4026L20.9412 42.3684C21.4516 42.3684 21.8794 42.4485 22.2247 42.6101C22.6769 42.8308 22.9043 43.1934 22.9043 43.6965C22.9043 44.2745 22.6552 44.7093 22.1556 44.997C21.7766 45.2045 21.281 45.307 20.6691 45.307L20.0247 45.2834L20.026 45.2847ZM20.5256 43.2814L20.1059 44.9208L20.5026 44.9444C20.8898 44.9444 21.2025 44.8157 21.4422 44.5609C21.5545 44.4361 21.6398 44.2863 21.698 44.1103C21.7562 43.9329 21.7847 43.7306 21.7847 43.5008C21.7847 43.2196 21.7089 43.0226 21.5586 42.9096C21.411 42.7888 21.2134 42.7283 20.9656 42.7283C20.8099 42.7283 20.7016 42.7769 20.6407 42.8742L20.5256 43.2801V43.2814Z" fill="white"/>
<path d="M23.829 47.1554C23.829 47.2079 23.8249 47.2473 23.8168 47.2736C23.7816 47.4233 23.6922 47.5573 23.5474 47.6729C23.4025 47.7898 23.2468 47.8476 23.0803 47.8476C22.9368 47.8476 22.8231 47.8043 22.7378 47.7163C22.6606 47.6453 22.6159 47.5429 22.6038 47.4076L22.639 47.1974C22.6539 47.137 22.6931 47.0726 22.7554 47.0004C22.8001 46.9478 22.8461 46.9031 22.8881 46.8664C23.0316 46.7494 23.1859 46.6917 23.3524 46.6917C23.4959 46.6917 23.611 46.735 23.699 46.8178C23.7843 46.9018 23.829 47.0148 23.829 47.154" fill="white"/>
<path d="M25.3399 46.1412L26.1008 43.0043C26.0575 42.8716 25.9803 42.7797 25.8652 42.7258C25.7502 42.672 25.6026 42.6431 25.4212 42.6431L25.4902 42.3672L26.2633 42.4013L26.9781 42.3672L28.7476 46.3317L29.3405 43.7426L29.3988 43.4115L29.4245 43.1698C29.4245 42.9859 29.3609 42.8506 29.2322 42.7639C29.17 42.7258 29.1036 42.6969 29.0292 42.6759C28.9547 42.6549 28.8735 42.6444 28.7841 42.6444L28.8545 42.3685L29.6722 42.4027L30.5319 42.3685V42.6444C30.2761 42.668 30.077 42.8217 29.9335 43.1068C29.8794 43.2171 29.7995 43.4864 29.6966 43.9173L28.7435 48H28.3901L26.358 43.5481L25.7407 46.1439L25.6446 46.6378C25.6364 46.6917 25.6256 46.7757 25.6107 46.894C25.5972 47.0122 25.5877 47.0871 25.585 47.1225C25.585 47.2933 25.6473 47.4128 25.7718 47.4759C25.826 47.5061 25.9654 47.5416 26.1901 47.5823L26.1319 47.8608L25.2898 47.8385L24.3733 47.8608V47.5849C24.7402 47.5508 24.9893 47.3393 25.122 46.9478L25.3372 46.1426L25.3399 46.1412Z" fill="white"/>
<path d="M31.3551 47.1554C31.3551 47.2079 31.351 47.2473 31.3429 47.2736C31.3077 47.4233 31.217 47.5573 31.0735 47.6729C30.9287 47.7898 30.773 47.8476 30.6064 47.8476C30.4616 47.8476 30.3492 47.8043 30.2639 47.7163C30.1867 47.6453 30.1407 47.5429 30.1299 47.4076L30.1651 47.1974C30.18 47.137 30.2192 47.0726 30.2815 47.0004C30.3275 46.9478 30.3722 46.9031 30.4155 46.8664C30.5591 46.7494 30.7134 46.6917 30.8799 46.6917C31.0234 46.6917 31.1371 46.735 31.2251 46.8178C31.3118 46.9018 31.3565 47.0148 31.3565 47.154" fill="white"/>
<path d="M36.0014 42.4106C36.2181 42.4841 36.413 42.601 36.5863 42.7574L36.7731 42.3685H37.0859L36.8137 44.0355H36.5118C36.5118 43.6178 36.4374 43.2959 36.2898 43.0713C36.1084 42.7941 35.8309 42.6562 35.4558 42.6562C34.8859 42.6562 34.4066 43.1147 34.0153 44.0316C33.861 44.4099 33.7432 44.783 33.662 45.1482C33.5808 45.5147 33.5388 45.8799 33.5388 46.245C33.5388 46.6312 33.6349 46.9531 33.8258 47.2106C34.0181 47.4667 34.3037 47.5968 34.6828 47.5968C35.0334 47.5968 35.3069 47.472 35.5019 47.2237C35.709 46.9649 35.8146 46.6418 35.8146 46.2555C35.8146 46.0861 35.7347 45.9915 35.5777 45.9679L35.2054 45.9337L35.2514 45.646H37.538L37.4622 45.9337C37.3539 45.9337 37.2592 45.9455 37.1766 45.9679C37.1008 45.9797 37.0398 46.0112 36.9979 46.0638C36.9518 46.1071 36.9045 46.2345 36.8584 46.4408L36.7731 46.8244L36.6323 47.4943H36.478C36.4306 47.4943 36.3683 47.4996 36.2898 47.5061C36.1896 47.5061 36.0894 47.5285 35.9893 47.5731C35.8688 47.6178 35.751 47.6638 35.6345 47.7084C35.4599 47.7754 35.3286 47.8227 35.2392 47.849C35.0009 47.9173 34.7356 47.9514 34.4445 47.9514C34.1534 47.9514 33.8746 47.9055 33.639 47.8135C33.4021 47.7202 33.1882 47.5757 32.9932 47.3774C32.6222 46.9872 32.4368 46.4684 32.4368 45.8221C32.4368 44.9262 32.7089 44.1235 33.2545 43.4115C33.8326 42.6654 34.5217 42.291 35.3272 42.291C35.4437 42.291 35.556 42.2989 35.6684 42.3186C35.7808 42.337 35.8918 42.3685 36.0001 42.4119" fill="white"/>
<path d="M39.0205 47.1554C39.0205 47.2079 39.0164 47.2473 39.0097 47.2736C38.9745 47.4233 38.8851 47.5573 38.7403 47.6729C38.594 47.7898 38.4397 47.8476 38.2718 47.8476C38.1283 47.8476 38.0146 47.8043 37.9293 47.7163C37.8535 47.6453 37.8075 47.5429 37.7966 47.4076L37.8318 47.1974C37.8467 47.137 37.886 47.0726 37.9483 47.0004C37.9943 46.9478 38.039 46.9031 38.0823 46.8664C38.2258 46.7494 38.3801 46.6917 38.5467 46.6917C38.6902 46.6917 38.8039 46.735 38.8919 46.8178C38.9785 46.9018 39.0219 47.0148 39.0219 47.154" fill="white"/>
<path d="M46.5938 42.4106C46.8104 42.4841 47.0067 42.601 47.18 42.7574L47.3669 42.3685H47.6796L47.4075 44.0355H47.1056C47.1056 43.6178 47.0311 43.2959 46.8849 43.0713C46.7035 42.7941 46.4246 42.6562 46.0496 42.6562C45.4796 42.6562 45.0003 43.1147 44.6104 44.0316C44.4547 44.4099 44.337 44.783 44.2557 45.1482C44.1759 45.5147 44.1352 45.8799 44.1352 46.245C44.1352 46.6312 44.2314 46.9531 44.4222 47.2106C44.6145 47.4667 44.8988 47.5968 45.2792 47.5968C45.6299 47.5968 45.9034 47.472 46.097 47.2237C46.3054 46.9649 46.411 46.6418 46.411 46.2555C46.411 46.0861 46.3312 45.9915 46.1741 45.9679L45.8018 45.9337L45.8478 45.646H48.1345L48.0587 45.9337C47.9504 45.9337 47.8556 45.9455 47.773 45.9679C47.6972 45.9797 47.6363 46.0112 47.5943 46.0638C47.5483 46.1071 47.5009 46.2345 47.4549 46.4408L47.3682 46.8244L47.2288 47.4943H47.0744C47.0257 47.4943 46.9634 47.4996 46.8862 47.5061C46.7861 47.5061 46.6845 47.5285 46.5843 47.5731C46.4652 47.6178 46.3474 47.6638 46.2296 47.7084C46.0563 47.7754 45.925 47.8227 45.8357 47.849C45.596 47.9173 45.332 47.9514 45.041 47.9514C44.7499 47.9514 44.471 47.9055 44.2341 47.8135C43.9971 47.7202 43.7846 47.5757 43.591 47.3774C43.2187 46.9872 43.0332 46.4684 43.0332 45.8221C43.0332 44.9262 43.3053 44.1235 43.8509 43.4115C44.4277 42.6654 45.1181 42.291 45.9237 42.291C46.0401 42.291 46.1538 42.2989 46.2662 42.3186C46.3786 42.337 46.4882 42.3685 46.5965 42.4119" fill="white"/>
<path d="M48.7018 47.0936C48.7343 46.9951 48.7641 46.8979 48.7966 46.8007L49.5588 43.8319L49.6603 43.3577C49.6752 43.2986 49.6928 43.2289 49.7091 43.1501C49.7267 43.07 49.7362 43.0148 49.7362 42.9807C49.7362 42.8493 49.6955 42.7613 49.613 42.7166C49.548 42.668 49.437 42.6431 49.2826 42.6431H49.0795L49.1608 42.3672L50.3278 42.4013L51.3256 42.3672C51.5774 42.3672 51.794 42.383 51.9768 42.4184C52.1582 42.4526 52.3301 42.5117 52.4926 42.5984C52.9028 42.8125 53.1086 43.1475 53.1086 43.6007C53.1086 44.0539 52.9069 44.4572 52.5048 44.7449C52.1866 44.9708 51.7845 45.1048 51.2904 45.1508C51.7331 45.2742 52.0174 45.4739 52.1433 45.7485C52.2394 45.9389 52.2895 46.3094 52.2895 46.8585C52.2895 46.978 52.2936 47.0752 52.3017 47.1514C52.3085 47.225 52.3261 47.2854 52.3464 47.3314C52.3897 47.4036 52.4696 47.4444 52.5846 47.4549C52.6347 47.4549 52.6713 47.4522 52.6943 47.447C52.7187 47.4417 52.7498 47.4286 52.7877 47.4102C52.8067 47.3958 52.8432 47.3603 52.8974 47.3077C52.9529 47.2565 53.0138 47.1895 53.0842 47.112L53.3117 47.2972C53.0409 47.7334 52.6605 47.9501 52.1677 47.9501C51.8658 47.9501 51.6194 47.8568 51.4312 47.6743C51.3459 47.581 51.2809 47.4693 51.2362 47.3419C51.1915 47.2132 51.1699 47.0634 51.1699 46.89L51.1915 46.0243C51.1915 45.7235 51.1238 45.5173 50.9844 45.4043C50.9302 45.3675 50.8639 45.3373 50.7881 45.3176C50.7096 45.2966 50.6121 45.2848 50.4957 45.2848H50.2466L49.9717 46.4053C49.9717 46.4394 49.9365 46.5787 49.8634 46.823L49.7835 47.2736C49.7835 47.3984 49.8147 47.4825 49.877 47.5271C49.9541 47.5639 50.0611 47.5836 50.1951 47.5836H50.4334L50.363 47.8595L49.1161 47.8371L48.0249 47.8595L48.0939 47.5836C48.3336 47.5836 48.5015 47.514 48.5935 47.3747C48.6192 47.3327 48.6558 47.2394 48.7018 47.0936ZM50.8165 43.0844L50.3278 44.9314C50.4943 44.9314 50.6365 44.9275 50.7543 44.9196C50.8707 44.9117 50.9682 44.8959 51.0453 44.8749C51.1915 44.8381 51.331 44.779 51.4664 44.7015C51.6275 44.5846 51.7534 44.4125 51.8454 44.1813C51.8915 44.0591 51.928 43.9422 51.9483 43.8332C51.97 43.7242 51.9822 43.6059 51.9822 43.4785C51.9822 43.2105 51.9064 43.0201 51.7574 42.9045C51.6085 42.7875 51.396 42.7298 51.1225 42.7298C50.979 42.7298 50.895 42.7678 50.8734 42.8427C50.8734 42.8585 50.868 42.8861 50.8585 42.9307C50.849 42.9741 50.8355 43.0253 50.8165 43.0857" fill="white"/>
<path d="M55.5009 47.9501C54.9364 47.9501 54.4693 47.7662 54.1024 47.3983C53.7341 47.0292 53.5527 46.5274 53.5527 45.8877C53.5527 44.9931 53.8506 44.1694 54.4463 43.418C55.042 42.6653 55.7487 42.2883 56.5691 42.2883C57.1607 42.2883 57.6413 42.4801 58.0082 42.8624C58.1856 43.0581 58.3223 43.2827 58.4157 43.5363C58.5078 43.7885 58.5538 44.0801 58.5538 44.4125C58.5538 45.307 58.2506 46.1189 57.6413 46.8519C57.0348 47.5836 56.3213 47.9501 55.4996 47.9501M57.2596 42.9832C57.1079 42.7639 56.8927 42.6561 56.6151 42.6561C56.0777 42.6561 55.5943 43.1645 55.1692 44.1813C54.9986 44.5977 54.8714 44.9983 54.7834 45.3806C54.6967 45.7642 54.6521 46.1241 54.6521 46.4617C54.6521 46.7796 54.717 47.0515 54.8443 47.2722C54.9133 47.3773 55 47.4575 55.1015 47.5126C55.2044 47.5665 55.329 47.5941 55.4765 47.5941C56.0411 47.5941 56.5325 47.0831 56.9509 46.0624C57.2772 45.2138 57.4383 44.4401 57.4383 43.7412C57.4383 43.4259 57.3801 43.1724 57.2596 42.9819" fill="white"/>
<path d="M61.3427 42.7625C61.2615 42.8256 61.1654 43.0567 61.053 43.4548L60.6049 45.2505L60.4478 45.8758C60.3855 46.1687 60.3544 46.3802 60.3544 46.5063C60.3544 46.8072 60.4587 47.0397 60.6658 47.2052C60.8716 47.3707 61.1139 47.4535 61.3874 47.4535C61.8815 47.4535 62.2782 47.2039 62.5761 46.7047C62.7778 46.3566 62.9782 45.776 63.1799 44.9641L63.4371 43.8331L63.4886 43.5914L63.5346 43.1802C63.5346 42.9963 63.4723 42.8623 63.3491 42.7743C63.299 42.748 63.2259 42.7231 63.1338 42.6981C63.0404 42.6745 62.9687 42.6561 62.9172 42.6443L62.9876 42.3684L63.8812 42.4026L64.6759 42.3684V42.6443C64.4471 42.6679 64.2778 42.7559 64.1655 42.9096C64.1303 42.9661 64.0951 43.0397 64.0585 43.1316C64.022 43.2236 63.9786 43.3471 63.9286 43.5008L63.4994 45.1612C63.2625 46.149 63.0255 46.8098 62.7859 47.1435C62.4136 47.6794 61.8274 47.95 61.0259 47.95C60.5683 47.95 60.173 47.816 59.8359 47.5494C59.6599 47.3983 59.5231 47.2275 59.4297 47.0344C59.3363 46.8413 59.2903 46.6246 59.2903 46.3842C59.2903 46.2988 59.3011 46.1924 59.3214 46.0663C59.3417 45.9402 59.3769 45.7917 59.4297 45.6236L59.5516 45.173L59.8792 43.8331L59.9835 43.3944C60.0281 43.2131 60.0511 43.0765 60.0511 42.9819C60.0511 42.8321 60.0011 42.7389 59.9036 42.7008C59.8047 42.664 59.6653 42.6443 59.4825 42.6443L59.5516 42.3684L60.6712 42.4026L61.8382 42.3684L61.7624 42.6443C61.6554 42.6443 61.5688 42.6522 61.5079 42.6692C61.4456 42.6863 61.3901 42.7178 61.34 42.7625" fill="white"/>
<path d="M66.1217 45.2847L65.8347 46.4052C65.8266 46.4433 65.8198 46.4761 65.8144 46.5011C65.809 46.5274 65.7873 46.5996 65.7481 46.7165C65.6804 46.9937 65.6452 47.1802 65.6452 47.2735C65.6452 47.3983 65.6763 47.4824 65.7386 47.527C65.8239 47.5638 65.9322 47.5835 66.0635 47.5835H66.3004L66.2246 47.8594L64.9886 47.837L63.9082 47.8594L63.9651 47.5835C64.202 47.5835 64.3726 47.5139 64.4768 47.3747C64.5147 47.3208 64.5824 47.1303 64.6799 46.8006L65.4286 43.8331C65.4516 43.6925 65.4881 43.5375 65.5355 43.3641C65.5843 43.1934 65.6086 43.0646 65.6086 42.9819C65.6086 42.8466 65.568 42.7586 65.4868 42.7178C65.4204 42.6692 65.3108 42.6443 65.1551 42.6443H64.9642L65.0292 42.3684L66.1326 42.4026L67.0369 42.3684C67.5473 42.3684 67.9752 42.4485 68.3204 42.6101C68.7726 42.8308 69 43.1934 69 43.6965C69 44.2745 68.7495 44.7093 68.25 44.997C67.8723 45.2045 67.3768 45.307 66.7648 45.307L66.1204 45.2834L66.1217 45.2847ZM66.6213 43.2814L66.2016 44.9208L66.5969 44.9444C66.9855 44.9444 67.2982 44.8157 67.5392 44.5609C67.6502 44.4361 67.7355 44.2863 67.7937 44.1103C67.852 43.9329 67.8817 43.7306 67.8817 43.5008C67.8817 43.2196 67.8059 43.0226 67.6543 42.9096C67.5081 42.7888 67.3104 42.7283 67.0627 42.7283C66.907 42.7283 66.7987 42.7769 66.7377 42.8742L66.6227 43.2801L66.6213 43.2814Z" fill="white"/>
<path d="M28.5377 0H13.399L0 47.3195H15.14L28.5377 0Z" fill="white"/>
<path d="M37.9171 23.2696L27.6509 3.13301L25.0542 2.08079L28.5376 0H54.262C54.262 0 66.9096 0.0446629 66.9096 10.442H54.04L55.1826 3.79902H44.7865L37.9171 23.2696Z" fill="white"/>
<path d="M27.0349 13.8864L21.6453 34.739H41.9326C41.9326 34.739 66.9097 36.3968 66.9097 13.8247H46.1146L43.5816 21.7577H49.2231L46.9391 29.7525H35.4667L27.0349 13.8851V13.8864Z" fill="white"/>
</svg>
